<svg xmlns="http://www.w3.org/2000/svg" width="9.985" height="10.212" viewBox="0 0 9.985 10.212">
  <g id="calendar" transform="translate(-5.411)">
    <g id="Group_16178" data-name="Group 16178" transform="translate(5.411)">
      <path id="Path_1974" data-name="Path 1974" d="M118.307,258.474a.232.232,0,0,0-.232-.232h-.809a.232.232,0,0,0-.232.232v.809a.232.232,0,0,0,.232.232h.809a.232.232,0,0,0,.232-.232v-.809Z" transform="translate(-114.7 -252.84)" fill="#7295a7"/>
      <path id="Path_1975" data-name="Path 1975" d="M214.942,258.474a.232.232,0,0,0-.232-.232H213.9a.232.232,0,0,0-.232.232v.809a.232.232,0,0,0,.232.232h.809a.232.232,0,0,0,.232-.232Z" transform="translate(-209.313 -252.84)" fill="#7295a7"/>
      <path id="Path_1976" data-name="Path 1976" d="M311.57,258.474a.232.232,0,0,0-.232-.232h-.809a.232.232,0,0,0-.232.232v.809a.232.232,0,0,0,.232.232h.809a.232.232,0,0,0,.232-.232Z" transform="translate(-303.92 -252.84)" fill="#7295a7"/>
      <path id="Path_1977" data-name="Path 1977" d="M118.307,355.107a.232.232,0,0,0-.232-.232h-.809a.232.232,0,0,0-.232.232v.809a.232.232,0,0,0,.232.232h.809a.232.232,0,0,0,.232-.232v-.809Z" transform="translate(-114.7 -347.451)" fill="#7295a7"/>
      <path id="Path_1978" data-name="Path 1978" d="M214.942,355.107a.232.232,0,0,0-.232-.232H213.9a.232.232,0,0,0-.232.232v.809a.232.232,0,0,0,.232.232h.809a.232.232,0,0,0,.232-.232Z" transform="translate(-209.313 -347.451)" fill="#7295a7"/>
      <path id="Path_1979" data-name="Path 1979" d="M311.57,355.107a.232.232,0,0,0-.232-.232h-.809a.232.232,0,0,0-.232.232v.809a.232.232,0,0,0,.232.232h.809a.232.232,0,0,0,.232-.232v-.809Z" transform="translate(-303.92 -347.451)" fill="#7295a7"/>
      <path id="Path_1980" data-name="Path 1980" d="M14.508,54.146v1.235A1.009,1.009,0,0,1,13.5,56.39h-.638a1.014,1.014,0,0,1-1.017-1.008v-1.24H8.966v1.24A1.014,1.014,0,0,1,7.949,56.39H7.311A1.009,1.009,0,0,1,6.3,55.382V54.146a.919.919,0,0,0-.889.915V62.3a.92.92,0,0,0,.915.921h8.155A.921.921,0,0,0,15.4,62.3V55.061A.919.919,0,0,0,14.508,54.146Zm-.3,7.7a.4.4,0,0,1-.4.4H6.974a.4.4,0,0,1-.4-.4V58.11a.4.4,0,0,1,.4-.4h6.841a.4.4,0,0,1,.4.4V61.85Z" transform="translate(-5.411 -53.009)" fill="#7295a7"/>
      <path id="Path_1981" data-name="Path 1981" d="M79.9,2.718h.631a.347.347,0,0,0,.347-.347V.347A.347.347,0,0,0,80.528,0H79.9a.347.347,0,0,0-.347.347V2.372A.347.347,0,0,0,79.9,2.718Z" transform="translate(-77.999)" fill="#7295a7"/>
      <path id="Path_1982" data-name="Path 1982" d="M344.8,2.718h.631a.347.347,0,0,0,.347-.347V.347A.347.347,0,0,0,345.436,0H344.8a.347.347,0,0,0-.347.347V2.372A.347.347,0,0,0,344.8,2.718Z" transform="translate(-337.365)" fill="#7295a7"/>
    </g>
  </g>
</svg>
